<svg width="24" height="24" viewBox="0 0 24 24" fill="none" xmlns="http://www.w3.org/2000/svg">
    <path fill-rule="evenodd" clip-rule="evenodd" d="M23.52 12.2727C23.52 11.4218 23.4436 10.6036 23.3018 9.81818H12V14.46H18.4582C18.18 15.96 17.3345 17.2309 16.0636 18.0818V21.0927H19.9418C22.2109 19.0036 23.52 15.9273 23.52 12.2727Z" fill="#4285F4"/>
    <path fill-rule="evenodd" clip-rule="evenodd" d="M12 24C15.24 24 17.9564 22.9255 19.9419 21.0928L16.0637 18.0818C14.9891 18.8018 13.6146 19.2273 12 19.2273C8.87459 19.2273 6.22914 17.1164 5.2855 14.28H1.27641V17.3891C3.25096 21.3109 7.30914 24 12 24Z" fill="#34A853"/>
    <path fill-rule="evenodd" clip-rule="evenodd" d="M5.28545 14.2801C5.04545 13.5601 4.90909 12.791 4.90909 12.0001C4.90909 11.2091 5.04545 10.4401 5.28545 9.72005V6.61096H1.27636C0.463636 8.23096 0 10.0637 0 12.0001C0 13.9364 0.463636 15.7691 1.27636 17.3891L5.28545 14.2801Z" fill="#FBBC05"/>
    <path fill-rule="evenodd" clip-rule="evenodd" d="M12 4.77273C13.7619 4.77273 15.3437 5.37818 16.5873 6.56727L20.0291 3.12545C17.951 1.18909 15.2346 0 12 0C7.30914 0 3.25096 2.68909 1.27641 6.61091L5.2855 9.72C6.22914 6.88364 8.87459 4.77273 12 4.77273Z" fill="#EA4335"/>
</svg>
