<svg width="40" height="40" viewBox="0 0 40 40" fill="none" xmlns="http://www.w3.org/2000/svg">
<rect x="0.5" y="0.5" width="39" height="39" rx="11.5" stroke="#478ACC"/>
<path d="M29.4172 19.2609C29.4095 18.5668 29.4069 17.8675 29.4043 17.1708H27.3292C27.3215 17.8649 27.3164 18.5616 27.3112 19.2609C26.6127 19.2635 25.9192 19.2686 25.2258 19.2763V21.3562C25.9192 21.3639 26.6178 21.369 27.3112 21.3767C27.3189 22.0709 27.3189 22.7676 27.3241 23.4617H29.4018C29.4043 22.7676 29.4095 22.0709 29.4146 21.3716C30.1132 21.3639 30.8066 21.3613 31.5 21.3536V19.2738C30.8091 19.2686 30.1106 19.2686 29.4172 19.2609ZM15.8056 19.2712C15.803 20.1016 15.8056 20.9346 15.8081 21.765C17.2001 21.8112 18.5947 21.7907 19.9866 21.8112C19.3728 24.904 15.1738 25.9067 12.9523 23.8859C10.6666 22.1146 10.7744 18.23 13.15 16.5846C14.8117 15.258 17.1719 15.5845 18.8335 16.7337C19.4858 16.1295 20.0971 15.4817 20.6852 14.8132C19.3035 13.7103 17.6085 12.9236 15.8056 13.0059C12.0406 12.8799 8.58116 16.181 8.51952 19.9525C8.27811 23.035 10.3019 26.0558 13.1577 27.1458C16.0033 28.2436 19.6528 27.4955 21.4711 24.9349C22.6704 23.3178 22.9298 21.2353 22.7886 19.2789C20.4592 19.2609 18.1324 19.2635 15.8056 19.2712Z" fill="#478ACC"/>
</svg>
