<svg width="12" height="13" viewBox="0 0 12 13" fill="none" xmlns="http://www.w3.org/2000/svg">
<path fill-rule="evenodd" clip-rule="evenodd" d="M3.73828 6.49967C3.73828 6.13526 4.03369 5.83984 4.39811 5.83984H7.60221C7.96662 5.83984 8.26203 6.13526 8.26203 6.49967V11.1712H6.94239V7.15949H5.05793V11.1712H3.73828V6.49967Z" fill="#949799"/>
<path fill-rule="evenodd" clip-rule="evenodd" d="M5.59605 0.63899C5.83432 0.45367 6.16796 0.45367 6.40623 0.638991L11.2124 4.37711C11.3731 4.50212 11.4671 4.69433 11.4671 4.89795V10.7721C11.4671 11.2304 11.2851 11.6699 10.961 11.9939C10.637 12.318 10.1975 12.5 9.73926 12.5L2.26017 12.5C1.80265 12.4992 1.36411 12.3171 1.04073 11.9934C0.71735 11.6698 0.535533 11.2311 0.535156 10.7736L0.535156 4.89795C0.535156 4.69433 0.629163 4.50212 0.789888 4.37711L5.59605 0.63899ZM1.8548 5.22066V10.7727C1.85495 10.8807 1.89789 10.9843 1.97425 11.0607C2.05055 11.137 2.154 11.1801 2.26195 11.1804C2.26208 11.1804 2.26182 11.1804 2.26195 11.1804H9.73926C9.84753 11.1804 9.95136 11.1373 10.0279 11.0608C10.1045 10.9842 10.1475 10.8804 10.1475 10.7721V5.22066L6.00114 1.99573L1.8548 5.22066Z" fill="#949799"/>
</svg>
