<svg width="40" height="40" viewBox="0 0 40 40" fill="none" xmlns="http://www.w3.org/2000/svg">
    <rect width="40" height="40" rx="12" fill="#C8DCF0"/>
    <path d="M27.4406 20.9994C27.2206 20.9994 26.9906 20.9294 26.7706 20.8794C26.3251 20.7812 25.8873 20.6509 25.4606 20.4894C24.9967 20.3206 24.4867 20.3294 24.0289 20.514C23.5711 20.6986 23.1977 21.046 22.9806 21.4894L22.7606 21.9394C21.7866 21.3976 20.8916 20.7246 20.1006 19.9394C19.3154 19.1484 18.6424 18.2534 18.1006 17.2794L18.5206 16.9994C18.964 16.7823 19.3114 16.4089 19.496 15.9511C19.6806 15.4932 19.6894 14.9833 19.5206 14.5194C19.3618 14.0918 19.2315 13.6542 19.1306 13.2094C19.0806 12.9894 19.0406 12.7594 19.0106 12.5294C18.8892 11.825 18.5202 11.1871 17.9702 10.7306C17.4202 10.2741 16.7253 10.029 16.0106 10.0394H13.0106C12.5796 10.0353 12.1528 10.1242 11.7593 10.2999C11.3658 10.4756 11.0147 10.7341 10.73 11.0577C10.4453 11.3812 10.2337 11.7624 10.1096 12.1751C9.98543 12.5878 9.95167 13.0224 10.0106 13.4494C10.5433 17.6388 12.4566 21.5313 15.4482 24.512C18.4399 27.4928 22.3393 29.3919 26.5306 29.9094H26.9106C27.648 29.9105 28.36 29.6399 28.9106 29.1494C29.227 28.8664 29.4797 28.5196 29.6521 28.1317C29.8244 27.7438 29.9126 27.3238 29.9106 26.8994V23.8994C29.8983 23.2048 29.6454 22.5359 29.1949 22.007C28.7445 21.4782 28.1244 21.122 27.4406 20.9994ZM27.9406 26.9994C27.9404 27.1414 27.91 27.2817 27.8514 27.411C27.7927 27.5403 27.7073 27.6557 27.6006 27.7494C27.4889 27.8459 27.3582 27.9179 27.217 27.961C27.0758 28.004 26.9271 28.0171 26.7806 27.9994C23.0355 27.5192 19.5568 25.8059 16.8933 23.1297C14.2298 20.4535 12.533 16.9667 12.0706 13.2194C12.0547 13.0729 12.0686 12.9247 12.1116 12.7838C12.1546 12.6428 12.2257 12.5121 12.3206 12.3994C12.4143 12.2927 12.5297 12.2072 12.659 12.1486C12.7883 12.09 12.9286 12.0596 13.0706 12.0594H16.0706C16.3031 12.0542 16.5302 12.1303 16.7127 12.2745C16.8953 12.4186 17.0218 12.6219 17.0706 12.8494C17.1106 13.1227 17.1606 13.3927 17.2206 13.6594C17.3361 14.1865 17.4898 14.7046 17.6806 15.2094L16.2806 15.8594C16.1609 15.9143 16.0532 15.9923 15.9637 16.089C15.8743 16.1856 15.8048 16.299 15.7593 16.4226C15.7137 16.5462 15.6931 16.6775 15.6984 16.8091C15.7038 16.9407 15.7351 17.0699 15.7906 17.1894C17.2298 20.2721 19.7078 22.7502 22.7906 24.1894C23.0341 24.2894 23.3071 24.2894 23.5506 24.1894C23.6753 24.1448 23.7899 24.0758 23.8878 23.9866C23.9856 23.8973 24.0648 23.7895 24.1206 23.6694L24.7406 22.2694C25.2576 22.4543 25.7852 22.6079 26.3206 22.7294C26.5873 22.7894 26.8573 22.8394 27.1306 22.8794C27.358 22.9282 27.5613 23.0547 27.7055 23.2372C27.8497 23.4198 27.9258 23.6468 27.9206 23.8794L27.9406 26.9994Z" fill="#478ACC"/>
</svg>
