<svg width="24" height="24" viewBox="0 0 24 24" fill="none" xmlns="http://www.w3.org/2000/svg">
<path d="M19.8832 18.5469L19.7753 18.6511L19.881 18.5447L17.0096 15.6943C18.1284 14.2446 18.667 12.4274 18.5167 10.5986C18.3627 8.72486 17.4972 6.9814 16.0982 5.72667C14.6991 4.47194 12.8728 3.80133 10.9948 3.85275C9.1168 3.90418 7.32988 4.67374 6.00147 6.00316C4.67307 7.33257 3.90414 9.12079 3.85275 11.0001C3.80137 12.8794 4.47143 14.7071 5.7252 16.1072C6.97897 17.5073 8.72115 18.3735 10.5935 18.5276C12.4211 18.6781 14.2372 18.1389 15.6859 17.0191L18.5335 19.8689C18.5336 19.869 18.5337 19.8691 18.5338 19.8692C18.622 19.9581 18.7269 20.0287 18.8425 20.0769C18.9582 20.1252 19.0823 20.15 19.2077 20.15C19.333 20.15 19.4572 20.1252 19.5729 20.0769C19.6886 20.0287 19.7936 19.958 19.8819 19.8689L19.8832 19.8675C20.0544 19.6904 20.15 19.4536 20.15 19.2072C20.15 18.9609 20.0544 18.7241 19.8832 18.5469ZM11.2124 16.6688C10.1352 16.6688 9.08216 16.3492 8.18647 15.7502C7.29077 15.1513 6.59264 14.3 6.18038 13.3039C5.76812 12.3079 5.66025 11.2119 5.87042 10.1545C6.08059 9.09707 6.59935 8.1258 7.36109 7.36349C8.12283 6.60117 9.09333 6.08204 10.1499 5.87172C11.2064 5.6614 12.3015 5.76935 13.2967 6.1819C14.292 6.59445 15.1426 7.2931 15.7411 8.1895C16.3396 9.0859 16.6591 10.1398 16.6591 11.2179C16.6591 12.6636 16.0852 14.0501 15.0638 15.0723C14.0423 16.0946 12.6569 16.6688 11.2124 16.6688Z" fill="#478ACC" stroke="#478ACC" stroke-width="0.3"/>
</svg>
