<svg width="40" height="40" viewBox="0 0 40 40" fill="none" xmlns="http://www.w3.org/2000/svg">
    <g clip-path="url(#clip0_3223_91024)">
        <path d="M23.0088 24.6607V27.4866C23.0088 28.0848 22.8347 28.3839 22.4865 28.3839C22.2811 28.3839 22.0803 28.2857 21.8838 28.0893V24.058C22.0803 23.8616 22.2811 23.7634 22.4865 23.7634C22.8347 23.7634 23.0088 24.0625 23.0088 24.6607ZM27.5356 24.6741V25.2902H26.3303V24.6741C26.3303 24.067 26.5311 23.7634 26.9329 23.7634C27.3347 23.7634 27.5356 24.067 27.5356 24.6741ZM14.5981 21.7545H16.0311V20.4955H11.8526V21.7545H13.2588V29.375H14.5981V21.7545ZM18.4553 29.375H19.6472V22.7589H18.4553V27.8214C18.1874 28.1964 17.9329 28.3839 17.6919 28.3839C17.5311 28.3839 17.4374 28.2902 17.4106 28.1027C17.4017 28.0759 17.3972 27.9196 17.3972 27.6339V22.7589H16.2053V27.9955C16.2053 28.433 16.241 28.7589 16.3124 28.9732C16.4195 29.3036 16.6785 29.4688 17.0892 29.4688C17.5178 29.4688 17.9731 29.1964 18.4553 28.6518V29.375ZM24.2008 27.3929V24.7545C24.2008 24.1027 24.1606 23.6607 24.0803 23.4286C23.9285 22.9286 23.6115 22.6786 23.1294 22.6786C22.6829 22.6786 22.2678 22.9196 21.8838 23.4018V20.4955H20.6919V29.375H21.8838V28.7321C22.2856 29.2232 22.7008 29.4688 23.1294 29.4688C23.6115 29.4688 23.9285 29.2232 24.0803 28.7321C24.1606 28.4911 24.2008 28.0446 24.2008 27.3929ZM28.7276 27.2589V27.0848H27.5088C27.5088 27.5402 27.4999 27.8125 27.482 27.9018C27.4195 28.2232 27.241 28.3839 26.9463 28.3839C26.5356 28.3839 26.3303 28.0759 26.3303 27.4598V26.2946H28.7276V24.9152C28.7276 24.2098 28.607 23.692 28.366 23.3616C28.0178 22.9062 27.5445 22.6786 26.9463 22.6786C26.3392 22.6786 25.8615 22.9062 25.5133 23.3616C25.2633 23.692 25.1383 24.2098 25.1383 24.9152V27.2321C25.1383 27.9375 25.2678 28.4554 25.5267 28.7857C25.8749 29.2411 26.357 29.4688 26.9731 29.4688C27.616 29.4688 28.0981 29.2321 28.4195 28.7589C28.5803 28.5179 28.674 28.2768 28.7008 28.0357C28.7186 27.9554 28.7276 27.6964 28.7276 27.2589ZM20.5847 15.0312V12.2188C20.5847 11.6027 20.3928 11.2946 20.0088 11.2946C19.6249 11.2946 19.4329 11.6027 19.4329 12.2188V15.0312C19.4329 15.6562 19.6249 15.9688 20.0088 15.9688C20.3928 15.9688 20.5847 15.6562 20.5847 15.0312ZM30.2142 25.0893C30.2142 27.1786 30.0981 28.7411 29.866 29.7768C29.741 30.3036 29.482 30.7455 29.0892 31.1027C28.6963 31.4598 28.241 31.6652 27.7231 31.7188C26.0803 31.9062 23.6026 32 20.2901 32C16.9776 32 14.4999 31.9062 12.857 31.7188C12.3392 31.6652 11.8816 31.4598 11.4843 31.1027C11.0869 30.7455 10.8303 30.3036 10.7142 29.7768C10.482 28.7768 10.366 27.2143 10.366 25.0893C10.366 23 10.482 21.4375 10.7142 20.4018C10.8392 19.875 11.0981 19.433 11.491 19.0759C11.8838 18.7188 12.3436 18.5089 12.8704 18.4464C14.5044 18.2679 16.9776 18.1786 20.2901 18.1786C23.6026 18.1786 26.0803 18.2679 27.7231 18.4464C28.241 18.5089 28.6986 18.7188 29.0959 19.0759C29.4932 19.433 29.7499 19.875 29.866 20.4018C30.0981 21.4018 30.2142 22.9643 30.2142 25.0893ZM16.8481 8H18.2142L16.5936 13.3438V16.9732H15.2544V13.3438C15.1294 12.683 14.857 11.7366 14.4374 10.5045C14.107 9.58482 13.8169 8.75 13.5669 8H14.9865L15.9374 11.5223L16.8481 8ZM21.8035 12.4598V14.8036C21.8035 15.5268 21.6785 16.0536 21.4285 16.3839C21.0892 16.8393 20.616 17.067 20.0088 17.067C19.4106 17.067 18.9419 16.8393 18.6026 16.3839C18.3526 16.0446 18.2276 15.5179 18.2276 14.8036V12.4598C18.2276 11.7455 18.3526 11.2232 18.6026 10.8929C18.9419 10.4375 19.4106 10.2098 20.0088 10.2098C20.616 10.2098 21.0892 10.4375 21.4285 10.8929C21.6785 11.2232 21.8035 11.7455 21.8035 12.4598ZM26.2901 10.2902V16.9732H25.0713V16.2366C24.5981 16.7902 24.1383 17.067 23.6919 17.067C23.2811 17.067 23.0178 16.9018 22.9017 16.5714C22.8303 16.3571 22.7945 16.0223 22.7945 15.567V10.2902H24.0133V15.2054C24.0133 15.5 24.0178 15.6562 24.0267 15.6741C24.0535 15.8705 24.1472 15.9688 24.3079 15.9688C24.549 15.9688 24.8035 15.7768 25.0713 15.3929V10.2902H26.2901Z" fill="#478ACC"/>
    </g>
    <rect x="0.5" y="0.5" width="39" height="39" rx="11.5" stroke="#478ACC"/>
    <defs>
        <clipPath id="clip0_3223_91024">
            <rect width="20.58" height="24" fill="white" transform="translate(10 8)"/>
        </clipPath>
    </defs>
</svg>
